<svg id="Layer_1" data-name="Layer 1" xmlns="http://www.w3.org/2000/svg" viewBox="0 0 259.02 126.92"><defs><style>.cls-1{font-size:12px;fill:#fffde8;font-family:Musee-Bold, Musee;font-weight:700;}.cls-2{letter-spacing:-0.04em;}.cls-3{letter-spacing:-0.04em;}.cls-4{letter-spacing:-0.03em;}.cls-5{letter-spacing:-0.02em;}.cls-6,.cls-8{fill:none;stroke-miterlimit:10;}.cls-6{stroke:#037c81;}.cls-7{fill:#037c81;}.cls-8{stroke:#999;}</style></defs><text class="cls-1" transform="translate(104.24 30.35)">Min Zhou</text><text class="cls-1" transform="translate(8.25 65.93)">Piao Long</text><text class="cls-1" transform="translate(190.01 65.93)"><tspan class="cls-2">N</tspan><tspan x="10.01" y="0">an </tspan><tspan class="cls-3" x="27.31" y="0">K</tspan><tspan x="35.81" y="0">ong</tspan></text><text class="cls-1" transform="translate(79.52 115.32)"><tspan class="cls-4">K</tspan><tspan x="8.62" y="0">athryn S. Cam</tspan><tspan class="cls-5" x="91.65" y="0">p</tspan><tspan x="99.09" y="0">y</tspan></text><line class="cls-6" x1="68.59" y1="50.63" x2="94.81" y2="34.47"/><polygon class="cls-7" points="70.56 52.4 65.48 52.55 67.89 48.08 70.56 52.4"/><polygon class="cls-7" points="95.51 37.03 97.93 32.55 92.84 32.7 95.51 37.03"/><line class="cls-6" x1="165.08" y1="34.47" x2="191.3" y2="50.63"/><polygon class="cls-7" points="164.38 37.03 161.96 32.55 167.05 32.7 164.38 37.03"/><polygon class="cls-7" points="189.33 52.4 194.41 52.55 192 48.08 189.33 52.4"/><line class="cls-6" x1="164.17" y1="98.04" x2="188.59" y2="75.42"/><polygon class="cls-7" points="166.44 99.4 161.48 100.53 162.99 95.67 166.44 99.4"/><polygon class="cls-7" points="189.78 77.8 191.28 72.94 186.32 74.06 189.78 77.8"/><line class="cls-6" x1="129.68" y1="92.25" x2="129.68" y2="40.71"/><polygon class="cls-7" points="132.22 91.51 129.68 95.91 127.14 91.51 132.22 91.51"/><polygon class="cls-7" points="132.22 41.45 129.68 37.05 127.14 41.45 132.22 41.45"/><line class="cls-6" x1="69.88" y1="75.42" x2="94.31" y2="98.04"/><polygon class="cls-7" points="68.7 77.8 67.19 72.94 72.15 74.06 68.7 77.8"/><polygon class="cls-7" points="92.03 99.4 96.99 100.53 95.49 95.67 92.03 99.4"/><line class="cls-8" x1="80.9" y1="43.05" x2="80.69" y2="43.18"/><line class="cls-6" x1="77.17" y1="63.75" x2="182.8" y2="63.75"/><polygon class="cls-7" points="77.92 66.29 73.51 63.75 77.92 61.21 77.92 66.29"/><polygon class="cls-7" points="182.05 66.29 186.46 63.75 182.05 61.21 182.05 66.29"/></svg>